<?xml version="1.0" encoding="UTF-8"?>
<svg width="2931px" height="1243px" viewBox="0 0 2931 1243" version="1.1" xmlns="http://www.w3.org/2000/svg" xmlns:xlink="http://www.w3.org/1999/xlink">
    <!-- Generator: Sketch 46.2 (44496) - http://www.bohemiancoding.com/sketch -->
    <title>Path 3</title>
    <desc>Created with Sketch.</desc>
    <defs></defs>
    <g id="Page-1" stroke="none" stroke-width="1" fill="none" fill-rule="evenodd">
        <g id="Desktop-HD-Copy" fill="#19A1BE">
            <path d="M-6,933.348656 C-6,933.348656 15.5183166,868.073721 116.604362,864.567216 C217.690407,861.060711 160.641847,1066.05637 283.246209,1066.05637 C405.850571,1066.05637 443.065258,911.770165 644.553757,911.770165 C846.042256,911.770165 727.624468,1162.08066 944.308911,1162.08066 C1160.99335,1162.08066 1108.44863,1013.41433 1343.64883,1013.3017 C1578.84904,1013.18907 1534.31113,1243 1836.06798,1243 C2137.82484,1243 2050.2503,961.400694 2221.39598,965.716392 C2392.54166,970.03209 2319.97989,1162.08066 2491.626,1162.08066 C2663.27211,1162.08066 2846.42801,986.755421 2931,933.348656 C2931,933.348656 2931,621.899104 2931,-1 L-6,-1 C-6,627.653368 -6,939.10292 -6,933.348656 Z" id="Path-3"></path>
        </g>
    </g>
</svg>